<svg xmlns="http://www.w3.org/2000/svg" width="61" height="62.97" viewBox="0 0 61 62.97">
    <metadata><?xpacket begin="﻿" id="W5M0MpCehiHzreSzNTczkc9d"?>
        <x:xmpmeta xmlns:x="adobe:ns:meta/" x:xmptk="Adobe XMP Core 5.6-c138 79.159824, 2016/09/14-01:09:01        ">
            <rdf:RDF xmlns:rdf="http://www.w3.org/1999/02/22-rdf-syntax-ns#">
                <rdf:Description rdf:about=""/>
            </rdf:RDF>
        </x:xmpmeta>


        <?xpacket end="w"?>
    </metadata>
    <defs>
        <style>
            .cls-1 {
            fill: #864f30;
            fill-rule: evenodd;
            }
        </style>
    </defs>
    <path id="Forma_1" data-name="Forma 1" class="cls-1"
          d="M1705.65,6328.41h-2.17a1.632,1.632,0,0,0,.11-0.55,1.86,1.86,0,0,0-3.72,0,1.632,1.632,0,0,0,.11.55h-7.13a1.636,1.636,0,0,0,.12-0.55,1.865,1.865,0,0,0-3.73,0,1.636,1.636,0,0,0,.12.55h-7.13a1.632,1.632,0,0,0,.11-0.55,1.86,1.86,0,0,0-3.72,0,1.632,1.632,0,0,0,.11.55h-7.13a1.636,1.636,0,0,0,.12-0.55,1.865,1.865,0,0,0-3.73,0,1.919,1.919,0,0,0,.11.55h-7.12a1.632,1.632,0,0,0,.11-0.55,1.86,1.86,0,0,0-3.72,0,1.632,1.632,0,0,0,.11.55h-2.18a5.3,5.3,0,0,0-5.32,5.29v50a5.3,5.3,0,0,0,5.32,5.28h44.34l11.34-11.25V6333.7A5.313,5.313,0,0,0,1705.65,6328.41Zm2.42,48.12-0.6.6h-4.56a3.867,3.867,0,0,0-3.87,3.84v4.53l-0.6.6H1655.3a2.418,2.418,0,0,1-2.42-2.4v-40.38h55.19v33.21Zm0-36.66a1.929,1.929,0,0,1-1.93,1.92h-51.32a1.931,1.931,0,0,1-1.94-1.92v-7.69a1.931,1.931,0,0,1,1.94-1.92h51.32a1.929,1.929,0,0,1,1.93,1.92v7.69Z"
          transform="translate(-1649.97 -6326)"/>
</svg>
