<svg xmlns="http://www.w3.org/2000/svg" width="19.97" height="23.82" viewBox="0 0 19.97 23.82">
  <metadata><?xpacket begin="﻿" id="W5M0MpCehiHzreSzNTczkc9d"?>
<x:xmpmeta xmlns:x="adobe:ns:meta/" x:xmptk="Adobe XMP Core 5.6-c138 79.159824, 2016/09/14-01:09:01        ">
   <rdf:RDF xmlns:rdf="http://www.w3.org/1999/02/22-rdf-syntax-ns#">
      <rdf:Description rdf:about=""/>
   </rdf:RDF>
</x:xmpmeta>
                                                                                                    
                                                                                                    
                                                                                                    
                                                                                                    
                                                                                                    
                                                                                                    
                                                                                                    
                                                                                                    
                                                                                                    
                                                                                                    
                                                                                                    
                                                                                                    
                                                                                                    
                                                                                                    
                                                                                                    
                                                                                                    
                                                                                                    
                                                                                                    
                                                                                                    
                                                                                                    
                           
<?xpacket end="w"?></metadata>
<defs>
    <style>
      .cls-1 {
        fill: #dcbc99;
        fill-rule: evenodd;
      }
    </style>
  </defs>
  <path id="Shape_1_copy_2" data-name="Shape 1 copy 2" class="cls-1" d="M1657.26,9806.07a2.139,2.139,0,0,0-3.27-.42l-1.71,1.38c-0.11-.09-0.23-0.17-0.34-0.25a4.384,4.384,0,0,1-.45-0.33,16.857,16.857,0,0,1-3.51-4.24,10.044,10.044,0,0,1-1.05-2.29c0.44-.32.85-0.66,1.25-0.99,0.15-.12.3-0.25,0.45-0.38a2.339,2.339,0,0,0,.41-3.44l-1.15-1.53c-0.13-.17-0.26-0.35-0.39-0.53-0.25-.35-0.52-0.71-0.79-1.04a2.263,2.263,0,0,0-1.53-.94,2.326,2.326,0,0,0-1.72.52c0,0.01,0,.01-0.01.01l-1.84,1.5a3.753,3.753,0,0,0-1.32,2.19,9.3,9.3,0,0,0,.18,3.78,21.907,21.907,0,0,0,2.93,6.82,23.04,23.04,0,0,0,6.81,7.08,11.489,11.489,0,0,0,4.08,1.83c0.1,0.02.2,0.04,0.3,0.05a3.564,3.564,0,0,0,2.92-.88,0.144,0.144,0,0,1,.02-0.03c0.29-.27.61-0.52,0.95-0.79,0.23-.17.47-0.36,0.7-0.56a2.518,2.518,0,0,0,.93-1.64,2.463,2.463,0,0,0-.54-1.8Zm1.1,5.47h0c-0.21.18-.43,0.35-0.66,0.53a11.944,11.944,0,0,0-1.05.88,2.249,2.249,0,0,1-1.9.56l-0.22-.03a10.294,10.294,0,0,1-3.61-1.64,22.115,22.115,0,0,1-6.42-6.67,20.8,20.8,0,0,1-2.75-6.42,7.435,7.435,0,0,1-.17-3.19,2.322,2.322,0,0,1,.84-1.39l1.84-1.49a1.135,1.135,0,0,1,.77-0.27,1.042,1.042,0,0,1,.66.44l0.02,0.02c0.26,0.32.5,0.65,0.76,1,0.13,0.18.26,0.36,0.4,0.55l1.15,1.52a0.983,0.983,0,0,1-.19,1.55c-0.15.13-.3,0.25-0.46,0.38-0.46.37-.89,0.72-1.35,1.06a0.053,0.053,0,0,0-.03.02,1.033,1.033,0,0,0-.38,1.1,0.09,0.09,0,0,0,.01.05,11.154,11.154,0,0,0,1.24,2.82h0a18.192,18.192,0,0,0,3.8,4.58c0.18,0.15.37,0.28,0.55,0.41,0.16,0.11.31,0.21,0.44,0.32,0.02,0.01.04,0.03,0.06,0.04a0.964,0.964,0,0,0,.46.19,1.026,1.026,0,0,0,.77-0.25l1.85-1.5a1.043,1.043,0,0,1,.77-0.28,0.965,0.965,0,0,1,.64.45l0.01,0.01,2.33,3.09A1.019,1.019,0,0,1,1658.36,9811.54Z" transform="translate(-1640.16 -9791.06)"/>
</svg>
