<?xml version="1.0" encoding="utf-8"?><svg xmlns="http://www.w3.org/2000/svg" xmlns:xlink="http://www.w3.org/1999/xlink" display="none"><symbol id="ever_logo" viewBox="0 0 2700 2450" xmlns="http://www.w3.org/2000/svg"><style>.ast0{fill:#45b9bd}</style><path class="ast0" d="M1803.6 2c.1 34.3.1 68.7.2 103v247.8C1304.2 644 804.6 935.2 304.9 1226.4c6.4 7 1435.2 841.5 1499.2 875.7 298.3-174 597.1-348.4 897.2-523.4v349.9c-3.2 2-7.1 4.5-11.1 6.8-160.6 93.7-321.2 187.3-481.7 281-132.1 77.1-264.2 154.2-396.2 231.2-2.3 1.3-4.4 2.9-6.7 4.3h-4c-3.9-2.5-7.7-5.2-11.6-7.5-138.7-80.8-277.4-161.7-416.1-242.5-277.1-161.5-554.3-323-831.4-484.5-176.7-103-353.4-206-530.1-308.9-3.4-2-7.2-3.1-10.8-4.6v-352c3.3-1.3 6.9-2.3 9.9-4.1 36.9-21.4 73.7-42.9 110.6-64.4 498.1-290.6 996.3-581.2 1494.4-871.8 57.3-33.4 114.5-66.8 171.8-100.2 3.9-2.3 8.6-4 9.3-9.5 2 .1 4 .1 6 .1z"/><path class="ast0" d="M2103.1 877.7c-299.9 175.1-599.6 350.2-899.9 525.5-99.5-58.3-198.7-116.5-299.9-175.7C1304 993.7 1703 760.9 2103.1 527.4v350.3zm300 175.3v350.3c-199.6 116.6-399.2 233.2-599.3 350-99.9-58.4-199.6-116.5-300.9-175.7 300.8-175.2 599.7-349.4 900.2-524.6z"/></symbol><symbol viewBox="0 0 127 157" id="rocket_logo" xmlns="http://www.w3.org/2000/svg"><style>.bst7{fill:#22a7e3}</style><path class="bst7" d="M96.7 129.8c-.4.7-.8 1.1-.9 1.5-2 7.4-7.1 9.5-14.2 8.5-2.9-.4-6-.1-9.2-.1-.7 2.4-1.2 4.8-2 7.1-.6 1.8-1.2 3.6-2.2 5.1-2.5 4.3-6.7 4.4-9 0-1.9-3.7-3-7.8-4.6-12.3-3.9 0-8.3-.3-12.6.1-4.8.4-7.6-1.4-9.1-5.8-.5-1.4-1.3-2.6-2.1-4.1-5.7 3.7-8.7 9.1-11.1 14.9-.7 1.6-1.1 3.3-1.7 4.9-1.6 4.1-3.9 5.8-7.7 5.7-4.1-.1-6.4-2.8-6.8-6.3-1-7.3-2-14.6-1.8-21.9.6-17.7 7.1-33.2 19-46.5.8-.9 1.1-2.4 1.2-3.7 2.3-28.9 13-53.8 36.5-72.4C63.2.7 64 .7 68.8 4.5c20.1 15.7 31 36.7 35.3 61.5.5 2.9.8 5.9 1 8.9.3 3.2 1.3 5.8 3.4 8.3 16 19.1 20.1 41.3 15.7 65.3-.8 4.2-3.5 6.8-6.7 7-4.1.2-6.2-1.6-8.3-6-2.7-5.6-5.7-11-8.8-16.3-.8-1.3-2.3-2.2-3.7-3.4zM63.5 12.1c-2.8 2.7-5.5 4.9-7.9 7.4-26.7 27.9-31.8 73.9-15 108.7.4.9 1.4 2.1 2.2 2.2 3.7.2 7.4.1 10.7.1-.4-13.6-.8-26.7-1.2-39.8-.1-4.2 1.7-7.4 5.7-8.1 4-.6 8.4-.6 12.3.4 1.9.5 4.4 3.5 4.6 5.5.4 8 .1 16-.1 24-.2 5.9-.7 11.8-1.1 18.1 2.6 0 4.9-.3 7.1.1 4 .6 5.9-1.2 7.4-4.9 10.7-26 11.3-52.1 1.3-78.4-5.5-14-13.9-25.7-26-35.3zM21.2 95.5c-8.1 10.7-13.3 33.8-9.6 43.8 3.3-7.1 7.7-13.2 14.2-17.6.6-.4 1.1-1.7.9-2.4-1.7-7.9-3.6-15.8-5.5-23.8zm94.9 42.7c2.2-14.3-3.1-35.1-10.4-42.3-1.7 8.2-3.5 16.7-5 23.9 5.5 6.5 10.6 12.6 15.4 18.4zM61.3 91.4c.5 12.1 1 24.2 1.6 37.1.9-1 1.1-1.1 1.2-1.3.5-11.3 1.1-22.6 1.6-33.9 0-3.1-1.7-2.8-4.4-1.9z"/><path class="bst7" d="M84.2 56.2c0 11.5-9.1 20.6-20.6 20.5-11.4 0-20.8-9.4-20.8-20.7 0-11.3 9.4-20.7 20.7-20.8 11.6-.1 20.7 9.1 20.7 21zM63.8 44.7c-6.4-.1-11.2 4.5-11.3 10.9-.1 6.7 4.4 11.6 10.9 11.7 6.5.1 11.5-4.7 11.7-11 0-6.4-5-11.5-11.3-11.6z"/></symbol><symbol viewBox="0 0 22 24" id="save_i" xmlns="http://www.w3.org/2000/svg"><path d="M21.46 6.14c-.01-.65-.03-1.26-.03-1.85a.861.861 0 0 0-.89-.83A12.818 12.818 0 0 1 11.37.22a.921.921 0 0 0-1.24 0A12.818 12.818 0 0 1 .96 3.46a.861.861 0 0 0-.89.83c0 .59-.02 1.2-.03 1.85-.12 6.01-.29 14.24 10.42 17.71a.866.866 0 0 0 .58 0c10.71-3.47 10.54-11.7 10.42-17.71zM10.75 22.18c-9.18-3.13-9.04-9.97-8.92-16.01.01-.36.01-.71.02-1.06a14.389 14.389 0 0 0 8.9-3.15 14.389 14.389 0 0 0 8.9 3.15c.01.35.01.7.02 1.06.12 6.04.26 12.88-8.92 16.01zm3.08-13.15l-4.32 4.04-1.84-1.72a.926.926 0 0 0-1.26 0 .794.794 0 0 0 0 1.18l2.47 2.32a.928.928 0 0 0 .63.25.972.972 0 0 0 .64-.25l4.94-4.64a.794.794 0 0 0 0-1.18.926.926 0 0 0-1.26 0z" fill="#297a7c"/></symbol></svg>